<mxfile host="app.diagrams.net" modified="2022-06-01T09:51:23.979Z" agent="5.0 (Windows NT 10.0; Win64; x64) AppleWebKit/537.36 (KHTML, like Gecko) Chrome/101.0.4951.67 Safari/537.36" etag="Ba89FnHoPZAB0YMrOqSS" version="18.2.0" type="github">
  <diagram id="kgpKYQtTHZ0yAKxKKP6v" name="Page-1">
    <mxGraphModel dx="898" dy="481" grid="1" gridSize="10" guides="1" tooltips="1" connect="1" arrows="1" fold="1" page="1" pageScale="1" pageWidth="850" pageHeight="1100" math="0" shadow="0">
      <root>
        <mxCell id="0" />
        <mxCell id="1" parent="0" />
        <mxCell id="3nuBFxr9cyL0pnOWT2aG-1" value="端口扫描业务模块" style="shape=umlLifeline;perimeter=lifelinePerimeter;container=1;collapsible=0;recursiveResize=0;rounded=0;shadow=0;strokeWidth=1;" parent="1" vertex="1">
          <mxGeometry x="120" y="80" width="100" height="300" as="geometry" />
        </mxCell>
        <mxCell id="3nuBFxr9cyL0pnOWT2aG-2" value="" style="points=[];perimeter=orthogonalPerimeter;rounded=0;shadow=0;strokeWidth=1;" parent="3nuBFxr9cyL0pnOWT2aG-1" vertex="1">
          <mxGeometry x="45" y="80" width="10" height="190" as="geometry" />
        </mxCell>
        <mxCell id="bi1xD9j1mPLdGu97wEo9-21" value="" style="endArrow=block;dashed=1;endFill=0;endSize=12;html=1;rounded=0;" parent="3nuBFxr9cyL0pnOWT2aG-1" edge="1">
          <mxGeometry width="160" relative="1" as="geometry">
            <mxPoint x="420" y="240" as="sourcePoint" />
            <mxPoint x="55" y="240" as="targetPoint" />
          </mxGeometry>
        </mxCell>
        <mxCell id="bi1xD9j1mPLdGu97wEo9-25" value="最终结果返回" style="edgeLabel;html=1;align=center;verticalAlign=middle;resizable=0;points=[];" parent="bi1xD9j1mPLdGu97wEo9-21" vertex="1" connectable="0">
          <mxGeometry x="0.0717" relative="1" as="geometry">
            <mxPoint x="16" as="offset" />
          </mxGeometry>
        </mxCell>
        <mxCell id="3nuBFxr9cyL0pnOWT2aG-5" value="端口扫描引擎" style="shape=umlLifeline;perimeter=lifelinePerimeter;container=1;collapsible=0;recursiveResize=0;rounded=0;shadow=0;strokeWidth=1;" parent="1" vertex="1">
          <mxGeometry x="500" y="80" width="100" height="290" as="geometry" />
        </mxCell>
        <mxCell id="3nuBFxr9cyL0pnOWT2aG-6" value="" style="points=[];perimeter=orthogonalPerimeter;rounded=0;shadow=0;strokeWidth=1;" parent="3nuBFxr9cyL0pnOWT2aG-5" vertex="1">
          <mxGeometry x="45" y="80" width="10" height="180" as="geometry" />
        </mxCell>
        <mxCell id="3nuBFxr9cyL0pnOWT2aG-8" value="" style="verticalAlign=bottom;endArrow=block;shadow=0;strokeWidth=1;entryX=0.064;entryY=0.049;entryDx=0;entryDy=0;entryPerimeter=0;" parent="1" source="3nuBFxr9cyL0pnOWT2aG-2" target="3nuBFxr9cyL0pnOWT2aG-6" edge="1">
          <mxGeometry relative="1" as="geometry">
            <mxPoint x="275" y="160" as="sourcePoint" />
            <mxPoint x="530" y="170" as="targetPoint" />
          </mxGeometry>
        </mxCell>
        <mxCell id="bi1xD9j1mPLdGu97wEo9-22" value="任务参数输入" style="edgeLabel;html=1;align=center;verticalAlign=middle;resizable=0;points=[];" parent="3nuBFxr9cyL0pnOWT2aG-8" vertex="1" connectable="0">
          <mxGeometry x="-0.0658" y="-1" relative="1" as="geometry">
            <mxPoint x="12" y="-1" as="offset" />
          </mxGeometry>
        </mxCell>
        <mxCell id="bi1xD9j1mPLdGu97wEo9-7" value="" style="verticalAlign=bottom;endArrow=block;shadow=0;strokeWidth=1;entryX=0.9;entryY=0.264;entryDx=0;entryDy=0;entryPerimeter=0;exitX=0.064;exitY=0.272;exitDx=0;exitDy=0;exitPerimeter=0;" parent="1" target="3nuBFxr9cyL0pnOWT2aG-2" edge="1" source="3nuBFxr9cyL0pnOWT2aG-6">
          <mxGeometry relative="1" as="geometry">
            <mxPoint x="540" y="210" as="sourcePoint" />
            <mxPoint x="180" y="200" as="targetPoint" />
            <Array as="points" />
          </mxGeometry>
        </mxCell>
        <mxCell id="bi1xD9j1mPLdGu97wEo9-23" value="中间结果返回" style="edgeLabel;html=1;align=center;verticalAlign=middle;resizable=0;points=[];" parent="bi1xD9j1mPLdGu97wEo9-7" vertex="1" connectable="0">
          <mxGeometry x="0.1005" y="-1" relative="1" as="geometry">
            <mxPoint x="19" as="offset" />
          </mxGeometry>
        </mxCell>
        <mxCell id="bi1xD9j1mPLdGu97wEo9-15" value="" style="verticalAlign=bottom;endArrow=block;shadow=0;strokeWidth=1;exitX=-0.009;exitY=0.567;exitDx=0;exitDy=0;exitPerimeter=0;" parent="1" target="3nuBFxr9cyL0pnOWT2aG-2" edge="1" source="3nuBFxr9cyL0pnOWT2aG-6">
          <mxGeometry relative="1" as="geometry">
            <mxPoint x="540" y="260" as="sourcePoint" />
            <mxPoint x="180" y="250" as="targetPoint" />
            <Array as="points">
              <mxPoint x="360" y="262" />
            </Array>
          </mxGeometry>
        </mxCell>
        <mxCell id="bi1xD9j1mPLdGu97wEo9-24" value="扫描状态返回" style="edgeLabel;html=1;align=center;verticalAlign=middle;resizable=0;points=[];" parent="bi1xD9j1mPLdGu97wEo9-15" vertex="1" connectable="0">
          <mxGeometry x="0.1018" y="-1" relative="1" as="geometry">
            <mxPoint x="20" y="-6" as="offset" />
          </mxGeometry>
        </mxCell>
      </root>
    </mxGraphModel>
  </diagram>
</mxfile>
